<svg width="103" height="103" viewBox="0 0 103 103" fill="none" xmlns="http://www.w3.org/2000/svg">
<rect width="103" height="103" rx="25" fill="#F6339A"/>
<path d="M27.6105 67.5034C24.4124 67.5034 21.4753 67.0303 18.7994 66.0839C16.156 65.1375 14.0185 63.7506 12.3869 61.9231C10.7552 60.063 9.85775 57.7786 9.69458 55.07C9.62932 53.9605 9.8088 52.7367 10.233 51.3987C10.6573 50.0608 11.2447 48.7391 11.9953 47.4337C12.7785 46.0958 13.6922 44.9046 14.7365 43.8604C15.8134 42.7834 16.9556 41.9676 18.163 41.4128C18.2609 41.3476 18.4078 41.2986 18.6036 41.266C18.832 41.2333 18.9952 41.217 19.0931 41.217C19.2889 41.217 19.3868 41.266 19.3868 41.3639C19.3868 41.527 19.142 41.7881 18.6525 42.1471C17.2819 43.224 16.156 44.4641 15.2749 45.8673C14.3612 47.2706 13.6759 48.7717 13.219 50.3708C12.7621 51.9698 12.5337 53.5852 12.5337 55.2169C12.5337 57.1423 12.9416 58.8066 13.7575 60.2098C14.6059 61.5804 15.7318 62.7063 17.1351 63.5874C18.5383 64.5011 20.1374 65.1701 21.9322 65.5944C23.7271 66.0186 25.6035 66.2307 27.5615 66.2307C29.748 66.2307 31.9018 65.986 34.023 65.4965C36.1768 65.007 38.1348 64.3053 39.897 63.3916C42.6056 61.9557 44.7431 60.1772 46.3096 58.056C47.9086 55.9348 48.7081 53.8299 48.7081 51.7414C48.7081 50.6318 48.4634 49.5712 47.9739 48.5596C47.517 47.548 46.7664 46.6342 45.7221 45.8184C44.9389 45.1983 43.9762 44.6109 42.8341 44.0562C41.7245 43.5014 40.5334 42.9629 39.2607 42.4408C38.0206 41.9187 36.7968 41.3965 35.5894 40.8744C34.3819 40.3196 33.3214 39.7322 32.4076 39.1122C31.1023 38.231 30.1396 37.2847 29.5195 36.273C28.9321 35.2614 28.6384 34.2497 28.6384 33.2381C28.6384 32.0307 28.9811 30.8558 29.6664 29.7137C30.3843 28.5715 31.347 27.5435 32.5545 26.6298C33.7945 25.6834 35.1815 24.9491 36.7153 24.427C38.0532 23.9701 39.5054 23.6112 41.0718 23.3501C42.6709 23.089 44.2373 22.9585 45.7711 22.9585C47.0438 22.9585 48.2513 23.0564 49.3934 23.2522C50.5682 23.4154 51.5962 23.7254 52.4773 24.1823C53.5869 24.7044 54.4353 25.406 55.0227 26.2871C55.6101 27.1356 55.9039 28.033 55.9039 28.9794C55.9039 30.2848 55.3164 31.4269 54.1416 32.4059C53.7174 32.7323 53.2442 33.0423 52.7221 33.336C52.1999 33.5971 51.5799 33.8255 50.862 34.0213C50.7314 34.0539 50.5846 34.0703 50.4214 34.0703C50.0298 34.0703 49.834 33.956 49.834 33.7276C49.834 33.5971 49.9319 33.4665 50.1277 33.336C50.3561 33.1728 50.6825 33.0749 51.1067 33.0423C52.0857 32.9118 52.82 32.5365 53.3095 31.9164C53.8316 31.2964 54.0927 30.5785 54.0927 29.7626C54.0927 28.9141 53.799 28.082 53.2116 27.2661C52.6568 26.4177 51.792 25.716 50.6172 25.1613C49.4424 24.5739 47.9412 24.2802 46.1137 24.2802C45.0695 24.2802 43.911 24.3944 42.6383 24.6228C41.3982 24.8512 40.0439 25.2265 38.5754 25.7487C36.7805 26.3687 35.2794 27.2825 34.0719 28.4899C32.8971 29.6973 32.3097 30.9864 32.3097 32.357C32.3097 33.2055 32.5871 34.0703 33.1419 34.9514C33.7293 35.7998 34.6593 36.6157 35.932 37.3989C37.009 38.0516 38.2327 38.7042 39.6033 39.3569C40.9739 39.977 42.3609 40.6133 43.7641 41.266C45.1674 41.886 46.4401 42.555 47.5823 43.273C49.3771 44.3825 50.6661 45.5736 51.4494 46.8463C52.2326 48.119 52.6242 49.4244 52.6242 50.7624C52.6242 52.3288 52.151 53.9115 51.2046 55.5106C50.2909 57.077 49.0834 58.5618 47.5823 59.9651C46.0811 61.3357 44.4331 62.5594 42.6383 63.6364C40.5497 64.8764 38.1838 65.8228 35.5404 66.4755C32.9298 67.1608 30.2864 67.5034 27.6105 67.5034ZM73.0748 66.0839C71.0515 66.0839 69.1587 65.5781 67.3965 64.5664C65.6669 63.5874 64.3453 61.9557 63.4315 59.6714C63.0399 58.725 62.7462 57.746 62.5504 56.7343C62.3872 55.6901 62.3057 54.6621 62.3057 53.6505C62.3057 51.464 62.6483 49.2775 63.3336 47.0911C64.0516 44.872 65.0142 42.7834 66.2217 40.8254C67.4618 38.8674 68.8324 37.1378 70.3335 35.6367C71.8673 34.1029 73.4664 32.8954 75.1307 32.0143C76.8276 31.1332 78.4756 30.6927 80.0747 30.6927C81.3474 30.6927 82.5385 31.0027 83.6481 31.6227C83.9091 31.7859 84.0397 31.9328 84.0397 32.0633C84.0397 32.1612 83.9581 32.2428 83.7949 32.308C83.6318 32.3733 83.4523 32.3733 83.2565 32.308C82.8649 32.1775 82.3754 32.1122 81.788 32.1122C80.3847 32.1122 78.9162 32.5854 77.3824 33.5318C75.8486 34.4782 74.3475 35.7672 72.879 37.3989C71.4431 38.9979 70.1377 40.8091 68.9629 42.8324C67.7881 44.8557 66.8417 46.9606 66.1238 49.147C65.4385 51.3008 65.0958 53.4057 65.0958 55.4616C65.0958 56.7017 65.2427 57.8928 65.5364 59.035C66.1564 61.1888 67.1191 62.7389 68.4245 63.6853C69.7624 64.6317 71.2799 65.1049 72.9769 65.1049C74.4454 65.1049 75.9955 64.7785 77.6272 64.1259C79.2588 63.4732 80.8253 62.5758 82.3264 61.4336C84.7087 59.6387 86.6667 57.6644 88.2005 55.5106C89.7669 53.3241 90.9254 51.0724 91.676 48.7554C92.4592 46.4058 92.8508 44.1051 92.8508 41.8534C92.8508 39.6996 92.4918 37.66 91.7739 35.7346C91.0885 33.7766 90.0443 32.047 88.641 30.5458C87.2704 29.0447 85.5571 27.8699 83.5012 27.0214C81.4779 26.1403 79.1446 25.6997 76.5013 25.6997C75.9792 25.6997 75.4407 25.7324 74.8859 25.7976C74.3312 25.8303 73.7601 25.8792 73.1727 25.9445C70.0072 26.3687 67.6086 27.5598 65.9769 29.5179C64.3453 31.4759 63.5294 33.9071 63.5294 36.8115C63.5294 37.4315 63.5621 38.0842 63.6273 38.7695C63.7252 39.4222 63.8558 40.0912 64.0189 40.7765C64.0516 40.8744 64.0679 41.0212 64.0679 41.217C64.0679 41.6086 63.9373 41.8044 63.6763 41.8044C63.4152 41.8044 63.1378 41.5434 62.8441 41.0212C62.4525 40.238 62.1588 39.4548 61.963 38.6716C61.7998 37.8884 61.7182 37.1215 61.7182 36.3709C61.7182 34.4782 62.2078 32.7323 63.1868 31.1332C64.1658 29.5015 65.5038 28.1309 67.2007 27.0214C68.8977 25.9118 70.823 25.1776 72.9769 24.8186C74.0211 24.6554 75.0165 24.5249 75.9628 24.427C76.9419 24.3291 77.8719 24.2802 78.753 24.2802C82.6364 24.2802 85.8019 24.9981 88.2494 26.434C90.7296 27.8372 92.5571 29.73 93.7319 32.1122C94.9067 34.4945 95.4941 37.1052 95.4941 39.9443C95.4941 42.7508 94.9556 45.6063 93.8787 48.5107C92.8344 51.415 91.3333 54.14 89.3753 56.6854C87.4499 59.1982 85.1655 61.3357 82.5222 63.0979C81.0863 64.0443 79.5362 64.7785 77.8719 65.3007C76.2076 65.8228 74.6085 66.0839 73.0748 66.0839ZM90.3543 81.1606C87.4825 81.1606 84.9697 80.8343 82.8159 80.1816C80.6947 79.529 78.8346 78.6805 77.2356 77.6362C75.6691 76.5919 74.2659 75.4824 73.0258 74.3076C71.8184 73.1654 70.6762 72.0722 69.5993 71.0279C68.5224 69.9836 67.4291 69.1351 66.3196 68.4825C65.2427 67.8298 64.0352 67.5034 62.6973 67.5034C62.3709 67.5034 61.9793 67.585 61.5224 67.7482C61.0982 67.9114 60.7066 68.1561 60.3476 68.4825C60.0213 68.8088 59.8581 69.2493 59.8581 69.8041C59.8581 70.0326 59.8092 70.1794 59.7113 70.2447C59.6134 70.3426 59.5318 70.3915 59.4665 70.3915C59.1728 70.3915 59.026 70.1468 59.026 69.6573C59.026 68.6456 59.4176 67.7808 60.2008 67.0629C60.984 66.3776 61.9304 66.0349 63.0399 66.0349C64.8021 66.0349 66.4012 66.4102 67.8371 67.1608C69.3056 67.9114 70.7415 68.8577 72.1447 69.9999C73.5806 71.1747 75.147 72.3822 76.844 73.6223C78.3777 74.7318 80.0421 75.7598 81.8369 76.7061C83.6644 77.6851 85.5082 78.4684 87.3683 79.0558C89.2611 79.6432 91.0396 79.9369 92.7039 79.9369C93.5198 79.9369 94.2866 79.839 95.0046 79.6432C95.7225 79.4474 96.3099 79.0884 96.7668 78.5663C97.2563 78.0441 97.5011 77.3262 97.5011 76.4124C97.5011 75.4661 97.1747 74.487 96.522 73.4754C95.902 72.4964 94.9883 71.6153 93.7808 70.8321C92.5734 70.0815 91.1212 69.5757 89.4242 69.3146C89.1632 69.2493 88.9674 69.1514 88.8368 69.0209C88.7063 68.8904 88.641 68.7598 88.641 68.6293C88.641 68.3682 88.8531 68.254 89.2774 68.2867C91.3333 68.613 93.0629 69.1841 94.4661 69.9999C95.902 70.8484 96.9952 71.7948 97.7458 72.839C98.4964 73.916 98.8717 74.9766 98.8717 76.0208C98.8717 77.3914 98.1864 78.5826 96.8158 79.5942C95.4451 80.6385 93.2913 81.1606 90.3543 81.1606Z" fill="white"/>
</svg>
